<svg xmlns="http://www.w3.org/2000/svg" viewBox="0 0 512 512">
  <g fill="none" stroke-width="2">
    <path stroke="#801944" d="m410.59 202.13-1.37 5.51" vector-effect="non-scaling-stroke"/>
    <path stroke="#80293c" d="M409.22 207.64c-12.53 50.16-47.46 90.43-95.35 109.65-.29.12-.42.34-.39.66 6.27 53.03-8.93 98.32-45.59 135.87-.17.17-.16.33.03.48 44.18 33.67 103.09 38.9 152.72 13.13" vector-effect="non-scaling-stroke"/>
    <path stroke="#801944" d="M420.64 467.43c48.06-25.72 77.77-75.53 76.33-129.68-1.27-47.84-26.89-92.43-67.66-117.79-4.74-2.95-7.17-5.86-4.78-11.35" vector-effect="non-scaling-stroke"/>
    <path stroke="#043e66" d="m375.32 185.06 21.51 4.48c.25.05.49-.12.52-.37 7.22-60.47-22.25-117.19-76.57-145.33" vector-effect="non-scaling-stroke"/>
    <path stroke="#055173" d="M320.78 43.84c-25.45-12.99-52.25-17.89-80.42-14.7-79.44 9-135.68 80.57-125.54 160.12.04.35.23.48.57.39 49.36-13.7 100.54-2.95 140.27 28.42.18.15.44.15.62.01 35.07-27 74.75-38.01 119.04-33.02" vector-effect="non-scaling-stroke"/>
    <path stroke="#088fd9" d="M320.78 43.84c7.5 6.69 14.3 13.78 20.41 21.28 4.16 5.1 7.93 10.59 11.3 16.46 18.17 31.63 25.78 66.12 22.83 103.48" vector-effect="non-scaling-stroke"/>
    <path stroke="#456124" d="M201.96 302c8.14-28.38 21.24-52.29 42.33-73.09.23-.23.22-.45-.04-.65-35.94-27.45-82.62-36.6-126.18-23.84-.33.09-.45.31-.37.64 11.08 43.85 41.88 79.74 83.58 97.26.35.15.57.04.68-.32" vector-effect="non-scaling-stroke"/>
    <path stroke="#4b163e" d="M310.56 302.5c41.73-17.83 72.89-53.32 83.79-97.5.09-.35-.04-.57-.38-.66-43.5-12.36-90.1-3.73-126.02 23.87-.28.21-.29.45-.04.7 20.68 20.58 34.72 45.02 42.11 73.33.08.29.26.38.54.26" vector-effect="non-scaling-stroke"/>
    <path stroke="#80691e" d="M23.42 293.2C3.27 349.7 20.59 412.99 66.7 451.06c51.73 42.71 124.13 42.98 177.5 3.31.27-.2.28-.42.05-.66-36.72-37.47-51.96-82.72-45.71-135.74.04-.36-.11-.61-.44-.74-46.78-18.76-81.93-58.34-94.61-107.22-.09-.34-.29-.44-.62-.31-37.04 15.43-65.96 45.66-79.45 83.5" vector-effect="non-scaling-stroke"/>
    <path stroke="#171f2a" d="M249.6 245.02c-15.92 17.41-27.06 37.92-33.41 61.55-.16.59.06.98.65 1.15 19.04 5.43 38.49 6.84 58.34 4.21" vector-effect="non-scaling-stroke"/>
    <path stroke="#171338" d="M275.18 311.93c7-.95 13.73-2.35 20.2-4.2.35-.1.48-.33.39-.69-6.7-26.45-19.76-49.2-39.18-68.25-.29-.28-.57-.28-.84 0l-6.15 6.23" vector-effect="non-scaling-stroke"/>
    <path stroke="#2d3262" d="M275.18 311.93c-3.69-24.13-12.21-46.44-25.58-66.91" vector-effect="non-scaling-stroke"/>
    <path stroke="#80492d" d="M276.89 326.8c-21.38 2.8-42.44 1.35-63.18-4.35-.27-.07-.54.11-.57.38-4.8 43.74 7.37 82.03 36.51 114.86" vector-effect="non-scaling-stroke"/>
    <path stroke="#803935" d="m249.65 437.69 6.07 6.12c.21.21.55.22.76.01 32.26-31.5 48.25-75.91 42.22-120.91-.05-.34-.24-.47-.57-.38-7.03 1.91-14.11 3.33-21.24 4.27" vector-effect="non-scaling-stroke"/>
    <path stroke="#ff8261" d="M249.65 437.69c21.29-33.73 30.37-70.7 27.24-110.89" vector-effect="non-scaling-stroke"/>
    <path stroke="#ff4180" d="M420.64 467.43c.91-1.59 2.1-3.01 3.58-4.28 11.91-10.25 22.12-23.75 29.24-36.96 37.62-69.84 25.54-171.94-44.24-218.55" vector-effect="non-scaling-stroke"/>
  </g>
  <path d="m410.59 202.13-1.37 5.51c-12.53 50.16-47.46 90.43-95.35 109.65-.29.12-.42.34-.39.66 6.27 53.03-8.93 98.32-45.59 135.87-.17.17-.16.33.03.48 44.18 33.67 103.09 38.9 152.72 13.13 48.06-25.72 77.77-75.53 76.33-129.68-1.27-47.84-26.89-92.43-67.66-117.79-4.74-2.95-7.17-5.86-4.78-11.35 3.11-4.18 6.88-4.93 11.33-2.24 45.84 27.74 73.46 75.61 76.14 129.01v10.71c-3.78 95.44-88.29 165.25-182.76 150.59-26.5-4.11-50.71-14.88-72.62-32.31-.27-.21-.55-.21-.82 0C153.25 544.45 6.59 476.36 0 347.11v-11.22c2.74-63.24 41.09-117.59 99.84-141.15.33-.13.46-.37.41-.71-13.27-94.53 57.29-178.72 153-180.74 95.62-2.01 169.97 81.38 159.01 175.94-.5 4.33-1.06 8.63-1.67 12.9Zm-35.27-17.07 21.51 4.48c.25.05.49-.12.52-.37 7.22-60.47-22.25-117.19-76.57-145.33-25.45-12.99-52.25-17.89-80.42-14.7-79.44 9-135.68 80.57-125.54 160.12.04.35.23.48.57.39 49.36-13.7 100.54-2.95 140.27 28.42.18.15.44.15.62.01 35.07-27 74.75-38.01 119.04-33.02ZM201.96 302c8.14-28.38 21.24-52.29 42.33-73.09.23-.23.22-.45-.04-.65-35.94-27.45-82.62-36.6-126.18-23.84-.33.09-.45.31-.37.64 11.08 43.85 41.88 79.74 83.58 97.26.35.15.57.04.68-.32Zm108.6.5c41.73-17.83 72.89-53.32 83.79-97.5.09-.35-.04-.57-.38-.66-43.5-12.36-90.1-3.73-126.02 23.87-.28.21-.29.45-.04.7 20.68 20.58 34.72 45.02 42.11 73.33.08.29.26.38.54.26Zm-287.14-9.3C3.27 349.7 20.59 412.99 66.7 451.06c51.73 42.71 124.13 42.98 177.5 3.31.27-.2.28-.42.05-.66-36.72-37.47-51.96-82.72-45.71-135.74.04-.36-.11-.61-.44-.74-46.78-18.76-81.93-58.34-94.61-107.22-.09-.34-.29-.44-.62-.31-37.04 15.43-65.96 45.66-79.45 83.5Zm226.18-48.18c-15.92 17.41-27.06 37.92-33.41 61.55-.16.59.06.98.65 1.15 19.04 5.43 38.49 6.84 58.34 4.21 7-.95 13.73-2.35 20.2-4.2.35-.1.48-.33.39-.69-6.7-26.45-19.76-49.2-39.18-68.25-.29-.28-.57-.28-.84 0l-6.15 6.23Zm27.29 81.78c-21.38 2.8-42.44 1.35-63.18-4.35-.27-.07-.54.11-.57.38-4.8 43.74 7.37 82.03 36.51 114.86l6.07 6.12c.21.21.55.22.76.01 32.26-31.5 48.25-75.91 42.22-120.91-.05-.34-.24-.47-.57-.38-7.03 1.91-14.11 3.33-21.24 4.27Z"/>
  <path fill="#09a1e5" d="M320.78 43.84c7.5 6.69 14.3 13.78 20.41 21.28 4.16 5.1 7.93 10.59 11.3 16.46 18.17 31.63 25.78 66.12 22.83 103.48-44.29-4.99-83.97 6.02-119.04 33.02-.18.14-.44.14-.62-.01-39.73-31.37-90.91-42.12-140.27-28.42-.34.09-.53-.04-.57-.39-10.14-79.55 46.1-151.12 125.54-160.12 28.17-3.19 54.97 1.71 80.42 14.7Z"/>
  <path fill="#077ccc" d="M320.78 43.84c54.32 28.14 83.79 84.86 76.57 145.33-.03.25-.27.42-.52.37l-21.51-4.48c2.95-37.36-4.66-71.85-22.83-103.48-3.37-5.87-7.14-11.36-11.3-16.46-6.11-7.5-12.91-14.59-20.41-21.28Z"/>
  <path fill="#89c247" d="M244.29 228.91c-21.09 20.8-34.19 44.71-42.33 73.09-.11.36-.33.47-.68.32-41.7-17.52-72.5-53.41-83.58-97.26-.08-.33.04-.55.37-.64 43.56-12.76 90.24-3.61 126.18 23.84.26.2.27.42.04.65Z"/>
  <path fill="#962b7c" d="M310.56 302.5c-.28.12-.46.03-.54-.26-7.39-28.31-21.43-52.75-42.11-73.33-.25-.25-.24-.49.04-.7 35.92-27.6 82.52-36.23 126.02-23.87.34.09.47.31.38.66-10.9 44.18-42.06 79.67-83.79 97.5Z"/>
  <path fill="#ff3187" d="m410.59 202.13 13.94 6.48c-2.39 5.49.04 8.4 4.78 11.35 40.77 25.36 66.39 69.95 67.66 117.79 1.44 54.15-28.27 103.96-76.33 129.68.91-1.59 2.1-3.01 3.58-4.28 11.91-10.25 22.12-23.75 29.24-36.96 37.62-69.84 25.54-171.94-44.24-218.55l1.37-5.51Z"/>
  <path fill="#ff5178" d="M409.22 207.64c69.78 46.61 81.86 148.71 44.24 218.55-7.12 13.21-17.33 26.71-29.24 36.96-1.48 1.27-2.67 2.69-3.58 4.28-49.63 25.77-108.54 20.54-152.72-13.13-.19-.15-.2-.31-.03-.48 36.66-37.55 51.86-82.84 45.59-135.87-.03-.32.1-.54.39-.66 47.89-19.22 82.82-59.49 95.35-109.65Z"/>
  <path fill="#ffd23b" d="M23.42 293.2c13.49-37.84 42.41-68.07 79.45-83.5.33-.13.53-.03.62.31 12.68 48.88 47.83 88.46 94.61 107.22.33.13.48.38.44.74-6.25 53.02 8.99 98.27 45.71 135.74.23.24.22.46-.05.66-53.37 39.67-125.77 39.4-177.5-3.31C20.59 412.99 3.27 349.7 23.42 293.2Z"/>
  <path fill="#2d2570" d="M275.18 311.93c-3.69-24.13-12.21-46.44-25.58-66.91l6.15-6.23c.27-.28.55-.28.84 0 19.42 19.05 32.48 41.8 39.18 68.25.09.36-.04.59-.39.69-6.47 1.85-13.2 3.25-20.2 4.2Z"/>
  <path fill="#2d3e53" d="M249.6 245.02c13.37 20.47 21.89 42.78 25.58 66.91-19.85 2.63-39.3 1.22-58.34-4.21-.59-.17-.81-.56-.65-1.15 6.35-23.63 17.49-44.14 33.41-61.55Z"/>
  <path fill="#ff7169" d="M249.65 437.69c21.29-33.73 30.37-70.7 27.24-110.89 7.13-.94 14.21-2.36 21.24-4.27.33-.09.52.04.57.38 6.03 45-9.96 89.41-42.22 120.91-.21.21-.55.2-.76-.01l-6.07-6.12Z"/>
  <path fill="#ff9259" d="M276.89 326.8c3.13 40.19-5.95 77.16-27.24 110.89-29.14-32.83-41.31-71.12-36.51-114.86.03-.27.3-.45.57-.38 20.74 5.7 41.8 7.15 63.18 4.35Z"/>
</svg>